<?xml version="1.0" encoding="UTF-8" standalone="no"?>
<!-- Created with Inkscape (http://www.inkscape.org/) -->

<svg
   xmlns:dc="http://purl.org/dc/elements/1.1/"
   xmlns:cc="http://creativecommons.org/ns#"
   xmlns:rdf="http://www.w3.org/1999/02/22-rdf-syntax-ns#"
   xmlns:svg="http://www.w3.org/2000/svg"
   xmlns="http://www.w3.org/2000/svg"
   xmlns:sodipodi="http://sodipodi.sourceforge.net/DTD/sodipodi-0.dtd"
   xmlns:inkscape="http://www.inkscape.org/namespaces/inkscape"
   width="197.89081mm"
   height="149.26546mm"
   viewBox="0 0 197.89081 149.26546"
   version="1.1"
   id="svg1526"
   inkscape:version="0.92.5 (2060ec1f9f, 2020-04-08)"
   sodipodi:docname="NBC-NEWS-2023-STACKED.svg">
  <defs
     id="defs1520" />
  <sodipodi:namedview
     id="base"
     pagecolor="#ffffff"
     bordercolor="#666666"
     borderopacity="1.0"
     inkscape:pageopacity="0.0"
     inkscape:pageshadow="2"
     inkscape:zoom="1.5190917"
     inkscape:cx="373.96687"
     inkscape:cy="282.07646"
     inkscape:document-units="mm"
     inkscape:current-layer="layer1"
     showgrid="false"
     inkscape:snap-global="false"
     inkscape:window-width="1920"
     inkscape:window-height="1009"
     inkscape:window-x="-8"
     inkscape:window-y="-8"
     inkscape:window-maximized="1" />
  <metadata
     id="metadata1523">
    <rdf:RDF>
      <cc:Work
         rdf:about="">
        <dc:format>image/svg+xml</dc:format>
        <dc:type
           rdf:resource="http://purl.org/dc/dcmitype/StillImage" />
        <dc:title></dc:title>
      </cc:Work>
    </rdf:RDF>
  </metadata>
  <g
     inkscape:label="Layer 1"
     inkscape:groupmode="layer"
     id="layer1"
     transform="translate(-6.8879262,-67.382426)">
    <path
       style="opacity:1;vector-effect:none;fill:#fccc12;fill-opacity:1;fill-rule:evenodd;stroke:none;stroke-width:9.52173138;stroke-linecap:butt;stroke-linejoin:miter;stroke-miterlimit:4;stroke-dasharray:none;stroke-dashoffset:0;stroke-opacity:1"
       d="m 38.085445,143.99698 c -3.216818,-2.14384 -7.355177,-2.93184 -10.818518,-2.93428 -11.255039,0 -20.3790318,9.12401 -20.3790008,20.37903 -3.1e-5,11.25502 9.1239618,20.37905 20.3790008,20.37905 h 67.5728 z"
       id="path873"
       inkscape:connector-curvature="0"
       sodipodi:nodetypes="sccscs" />
    <path
       sodipodi:nodetypes="sccscs"
       inkscape:connector-curvature="0"
       id="path879"
       d="m 173.58122,143.99698 c 3.21682,-2.14384 7.35517,-2.93184 10.81851,-2.93428 11.25502,0 20.37904,9.12401 20.379,20.37903 4e-5,11.25502 -9.12398,20.37905 -20.379,20.37905 h -67.57278 z"
       style="opacity:1;vector-effect:none;fill:#05ac3f;fill-opacity:1;fill-rule:evenodd;stroke:none;stroke-width:9.52173138;stroke-linecap:butt;stroke-linejoin:miter;stroke-miterlimit:4;stroke-dasharray:none;stroke-dashoffset:0;stroke-opacity:1" />
    <path
       style="opacity:1;vector-effect:none;fill:#069de0;fill-opacity:1;fill-rule:evenodd;stroke:none;stroke-width:7.38642311;stroke-linecap:butt;stroke-linejoin:miter;stroke-miterlimit:4;stroke-dasharray:none;stroke-dashoffset:0;stroke-opacity:1"
       d="m 188.54424,116.62904 c 0,-11.25504 -9.12401,-20.379035 -20.37904,-20.379035 -8.03255,0.0071 -15.37627,4.703795 -18.59484,12.060645 l -27.96294,63.43688 57.56993,-37.97063 c 5.79266,-3.82059 9.36702,-10.21091 9.36689,-17.14786 z"
       id="path885"
       inkscape:connector-curvature="0"
       sodipodi:nodetypes="ccscsc" />
    <path
       sodipodi:nodetypes="ccscsc"
       inkscape:connector-curvature="0"
       id="path893"
       d="m 23.49549,116.62904 c 0,-11.25504 9.124003,-20.379035 20.379031,-20.379035 8.032527,0.0071 15.376254,4.703795 18.594825,12.060645 L 90.432284,171.74753 32.862355,133.7769 c -5.792666,-3.82059 -9.36703,-10.21091 -9.366865,-17.14786 z"
       style="opacity:1;vector-effect:none;fill:#ff7112;fill-opacity:1;fill-rule:evenodd;stroke:none;stroke-width:7.38642311;stroke-linecap:butt;stroke-linejoin:miter;stroke-miterlimit:4;stroke-dasharray:none;stroke-dashoffset:0;stroke-opacity:1" />
    <path
       style="opacity:1;vector-effect:none;fill:#ef1541;fill-opacity:1;fill-rule:evenodd;stroke:none;stroke-width:7.38642311;stroke-linecap:butt;stroke-linejoin:miter;stroke-miterlimit:4;stroke-dasharray:none;stroke-dashoffset:0;stroke-opacity:1"
       d="m 102.915,87.761438 c 0,-11.255016 -9.123992,-20.379012 -20.37903,-20.379012 -11.255028,1.2e-5 -20.379,9.123996 -20.379,20.379012 0,3.176552 0.88678,6.242283 2.170811,9.146832 L 92.5964,161.19432 102.6658,90.858842 c 0.14651,-1.023764 0.2408,-2.059043 0.2492,-3.097404 z"
       id="path897"
       inkscape:connector-curvature="0"
       sodipodi:nodetypes="cccscsc" />
    <path
       style="opacity:1;vector-effect:none;fill:#6e55dc;fill-opacity:1;fill-rule:evenodd;stroke:none;stroke-width:7.38642311;stroke-linecap:butt;stroke-linejoin:miter;stroke-miterlimit:4;stroke-dasharray:none;stroke-dashoffset:0;stroke-opacity:1"
       d="m 119.66939,161.19432 28.2682,-64.286405 c 1.28402,-2.904548 2.17121,-5.969925 2.17121,-9.146477 0,-11.255016 -9.12402,-20.378987 -20.37904,-20.379012 -11.25502,0 -20.37903,9.123996 -20.37903,20.379012 0.003,0.484929 0.0285,0.969329 0.0662,1.452044 h 8.92432 c 2.33923,0 3.93858,0.670612 5.08346,2.265168 -4.65997,1.339557 -12.85557,6.151797 -11.90656,12.7807 z"
       id="path903"
       inkscape:connector-curvature="0"
       sodipodi:nodetypes="ccscccscsc" />
    <path
       style="opacity:1;vector-effect:none;fill:#000000;fill-opacity:1;fill-rule:evenodd;stroke:none;stroke-width:0.15108712;stroke-linecap:butt;stroke-linejoin:miter;stroke-miterlimit:4;stroke-dasharray:none;stroke-dashoffset:0;stroke-opacity:1"
       d="m 34.738913,216.00992 v -23.20229 h -5.096191 v 15.03364 L 18.460323,192.80763 h -5.453511 v 23.20229 h 5.096202 v -15.02454 l 11.141859,15.02454 z"
       id="rect908"
       inkscape:connector-curvature="0"
       sodipodi:nodetypes="ccccccccccc" />
    <path
       style="opacity:1;vector-effect:none;fill:#000000;fill-opacity:1;fill-rule:evenodd;stroke:none;stroke-width:0.10609317;stroke-linecap:butt;stroke-linejoin:miter;stroke-miterlimit:4;stroke-dasharray:none;stroke-dashoffset:0;stroke-opacity:1"
       d="m 52.814655,216.00992 c 4.843509,0 8.167481,-2.08648 8.167481,-7.13303 0,-2.62775 -1.32265,-4.33317 -3.503333,-5.3463 1.621318,-0.75879 2.753281,-2.09173 2.753281,-4.23915 0,-3.84531 -3.135749,-6.48381 -7.337104,-6.48381 H 39.247879 v 23.20229 z m -8.470574,-18.76813 h 7.991906 c 1.529058,0 2.558705,0.77069 2.558705,2.06297 0,1.47767 -1.045212,2.2081 -2.585504,2.2081 h -7.965107 z m 0,8.70522 h 7.944321 c 2.096995,0 3.410136,0.99697 3.410136,2.7723 0,1.82495 -1.305332,2.72259 -3.33436,2.72259 h -8.020097 z"
       id="rect916"
       inkscape:connector-curvature="0"
       sodipodi:nodetypes="cccccccccccccccccccc" />
    <path
       style="opacity:1;fill:#000000;stroke:none;stroke-width:0.10609317px;stroke-linecap:butt;stroke-linejoin:miter;stroke-opacity:1"
       d="m 63.607075,204.34918 c 0,7.00755 5.868855,12.2987 12.998716,12.2987 4.345686,0 7.903659,-1.78955 10.51459,-4.46159 l -3.523819,-4.06097 c -2.029472,1.92155 -4.056601,3.12481 -6.960733,3.12481 -4.35105,0 -7.567929,-3.09401 -7.567929,-6.82353 0,-3.39464 2.862799,-6.81866 7.386329,-6.81866 2.466487,0 4.391094,1.12554 5.956638,2.81566 l 3.914973,-3.9362 c -2.5677,-2.53467 -5.793801,-4.27884 -9.843192,-4.27884 -6.579131,0 -12.875573,5.00548 -12.875573,12.14062 z"
       id="path930"
       inkscape:connector-curvature="0"
       sodipodi:nodetypes="ccccccccccc" />
    <path
       style="fill:#000000;fill-opacity:1;fill-rule:nonzero;stroke:none;stroke-width:0.345272"
       d="m 123.46027,216.00992 h 20.02025 v -4.90563 h -15.08149 v -4.90563 h 12.69498 v -4.64045 h -12.69498 v -4.11013 h 15.08149 v -4.64045 h -20.02025 z"
       id="path906"
       inkscape:connector-curvature="0" />
    <path
       style="fill:#000000;fill-opacity:1;fill-rule:nonzero;stroke:none;stroke-width:0.345272"
       d="m 152.22366,216.00992 h 5.30337 l 4.47473,-15.3798 4.44159,15.3798 h 5.30338 l 6.36404,-23.20229 h -4.90562 l -4.17641,15.21407 -4.40843,-15.21407 h -5.27025 l -4.40842,15.21407 -4.17641,-15.21407 h -4.90563 z"
       id="path904"
       inkscape:connector-curvature="0" />
    <path
       style="fill:#000000;fill-opacity:1;fill-rule:nonzero;stroke:none;stroke-width:0.345272"
       d="m 200.06781,194.59752 -2.61854,4.14327 c -3.11574,-1.19327 -5.30339,-1.6573 -7.22586,-1.6573 -2.71798,0 -4.77303,0.89494 -4.77303,2.41966 0,1.19326 1.25954,1.92247 4.17639,2.25393 l 3.24833,0.36462 c 4.90562,0.56348 7.88877,3.11573 7.88877,6.82809 0,4.93878 -3.64607,7.65675 -10.24215,7.65675 -3.54665,0 -7.92193,-1.39213 -12.03204,-3.84494 l 2.85055,-4.01069 c 2.718,1.75675 6.36406,2.78428 9.44666,2.78428 2.85056,0 4.44158,-0.8618 4.44158,-2.22079 0,-1.32585 -1.39214,-2.08821 -4.47472,-2.5191 l -3.31462,-0.46406 c -4.93877,-0.69606 -7.42474,-3.11572 -7.42474,-7.22584 0,-4.20957 3.87811,-6.92755 10.10958,-6.92755 2.85056,0 6.13202,0.7955 9.94384,2.41967 z"
       id="path847"
       inkscape:connector-curvature="0" />
    <path
       sodipodi:nodetypes="ccccccccccc"
       inkscape:connector-curvature="0"
       id="path914"
       d="m 118.9513,216.00992 v -23.20229 h -5.09619 v 15.03364 l -11.18239,-15.03364 h -5.453525 v 23.20229 h 5.096195 v -15.02454 l 11.14186,15.02454 z"
       style="opacity:1;vector-effect:none;fill:#000000;fill-opacity:1;fill-rule:evenodd;stroke:none;stroke-width:0.15108712;stroke-linecap:butt;stroke-linejoin:miter;stroke-miterlimit:4;stroke-dasharray:none;stroke-dashoffset:0;stroke-opacity:1" />
  </g>
</svg>
